<?xml version="1.0" encoding="utf-8" standalone="no"?>
<!DOCTYPE svg PUBLIC "-//W3C//DTD SVG 1.1//EN"
  "http://www.w3.org/Graphics/SVG/1.1/DTD/svg11.dtd">
<svg xmlns:xlink="http://www.w3.org/1999/xlink" width="157.844453pt" height="43.2pt" viewBox="0 0 157.844453 43.2" xmlns="http://www.w3.org/2000/svg" version="1.1">
 <metadata>
  <rdf:RDF xmlns:dc="http://purl.org/dc/elements/1.1/" xmlns:cc="http://creativecommons.org/ns#" xmlns:rdf="http://www.w3.org/1999/02/22-rdf-syntax-ns#">
   <cc:Work>
    <dc:type rdf:resource="http://purl.org/dc/dcmitype/StillImage"/>
    <dc:date>2024-08-29T13:19:18.517468</dc:date>
    <dc:format>image/svg+xml</dc:format>
    <dc:creator>
     <cc:Agent>
      <dc:title>Matplotlib v3.5.3, https://matplotlib.org/</dc:title>
     </cc:Agent>
    </dc:creator>
   </cc:Work>
  </rdf:RDF>
 </metadata>
 <defs>
  <style type="text/css">*{stroke-linejoin: round; stroke-linecap: butt}</style>
 </defs>
 <g id="figure_1">
  <g id="patch_1">
   <path d="M 0 43.2 
L 157.844453 43.2 
L 157.844453 0 
L 0 0 
L 0 43.2 
z
" style="fill: none; opacity: 0"/>
  </g>
  <g id="axes_1">
   <g id="patch_2">
    <path d="M 13.720202 29.899403 
L 14.818499 15.120036 
L 17.142808 15.120036 
Q 17.500028 15.120036 17.730549 15.286738 
Q 17.966187 15.448678 18.012501 15.786846 
L 18.187422 16.829927 
Q 18.623064 16.415552 19.073511 16.058333 
Q 19.523957 15.701113 20.034006 15.439152 
Q 20.544055 15.177191 21.11229 15.02954 
Q 21.685288 14.881889 22.352098 14.881889 
Q 23.766687 14.881889 24.625246 15.634432 
Q 25.484159 16.382212 25.839848 17.620573 
Q 26.251221 16.891845 26.818487 16.372686 
Q 27.386106 15.848764 28.048761 15.520122 
Q 28.716178 15.19148 29.432418 15.039066 
Q 30.153775 14.881889 30.868214 14.881889 
Q 32.116101 14.881889 33.064186 15.262924 
Q 34.012624 15.639195 34.620872 16.36316 
Q 35.229473 17.082362 35.490126 18.125444 
Q 35.755543 19.168525 35.657146 20.492619 
L 34.958101 29.899403 
L 31.181098 29.899403 
L 31.880143 20.492619 
Q 32.077999 17.830142 29.696535 17.830142 
Q 29.158324 17.830142 28.683578 18.001607 
Q 28.209186 18.16831 27.836362 18.506478 
Q 27.463892 18.839883 27.221921 19.33999 
Q 26.985068 19.835335 26.936223 20.492619 
L 26.237179 29.899403 
L 22.455413 29.899403 
L 23.154458 20.492619 
Q 23.260642 19.063741 22.710935 18.449323 
Q 22.161582 17.830142 21.032768 17.830142 
Q 20.275463 17.830142 19.592694 18.173073 
Q 18.915043 18.511241 18.301533 19.139947 
L 17.501968 29.899403 
L 13.720202 29.899403 
z
M 48.357409 29.899403 
Q 47.819199 29.899403 47.545103 29.742226 
Q 47.275771 29.58505 47.149226 29.108757 
L 46.893497 28.127594 
Q 46.295015 28.618175 45.743485 28.989684 
Q 45.196717 29.361192 44.615579 29.61839 
Q 44.039557 29.870825 43.396885 29.994662 
Q 42.758622 30.123261 41.982264 30.123261 
Q 41.029679 30.123261 40.2585 29.8613 
Q 39.492083 29.599338 38.953287 29.094468 
Q 38.419254 28.589598 38.160825 27.837055 
Q 37.907158 27.084512 37.980071 26.103349 
Q 38.04095 25.284125 38.516203 24.464902 
Q 38.99622 23.645678 40.050396 22.983631 
Q 41.104573 22.321584 42.808924 21.883394 
Q 44.518038 21.445205 47.023177 21.383287 
L 47.081578 20.597404 
Q 47.187762 19.168525 46.641948 18.501715 
Q 46.096489 17.830142 44.981964 17.830142 
Q 44.148451 17.830142 43.590965 18.025422 
Q 43.033834 18.215939 42.597353 18.449323 
Q 42.165988 18.677943 41.794257 18.873223 
Q 41.422879 19.063741 40.975164 19.063741 
Q 40.589367 19.063741 40.327983 18.863698 
Q 40.066599 18.663655 39.925896 18.377879 
L 39.328521 17.187147 
Q 40.698235 15.996415 42.289369 15.415337 
Q 43.880502 14.83426 45.680889 14.83426 
Q 46.976405 14.83426 47.96858 15.262924 
Q 48.965871 15.686824 49.623325 16.453656 
Q 50.281133 17.215724 50.574065 18.273094 
Q 50.866997 19.330465 50.772848 20.597404 
L 50.08159 29.899403 
L 48.357409 29.899403 
z
M 43.350193 27.546516 
Q 44.364697 27.546516 45.125088 27.184534 
Q 45.890595 26.817788 46.675601 26.060483 
L 46.852574 23.679018 
Q 45.376582 23.736173 44.386378 23.921928 
Q 43.396174 24.107682 42.793506 24.398221 
Q 42.1956 24.688759 41.918905 25.079319 
Q 41.647325 25.465117 41.614408 25.908069 
Q 41.547866 26.803499 42.015603 27.175008 
Q 42.488103 27.546516 43.350193 27.546516 
z
M 57.95415 30.123261 
Q 56.03469 30.123261 55.088367 29.013498 
Q 54.146807 27.903736 54.290509 25.969987 
L 54.890095 17.901586 
L 53.546949 17.901586 
Q 53.251647 17.901586 53.056944 17.701543 
Q 52.862241 17.5015 52.890911 17.115703 
L 53.002758 15.610617 
L 55.283069 15.177191 
L 56.363244 11.281115 
Q 56.542265 10.666698 57.242416 10.666698 
L 59.204742 10.666698 
L 58.866015 15.22482 
L 62.514418 15.22482 
L 62.3155 17.901586 
L 58.667097 17.901586 
L 58.086271 25.717552 
Q 58.03778 26.370073 58.291539 26.736818 
Q 58.550414 27.098801 59.074337 27.098801 
Q 59.355349 27.098801 59.546059 27.03212 
Q 59.736768 26.965439 59.876501 26.879706 
Q 60.016588 26.789211 60.131091 26.72253 
Q 60.250356 26.655849 60.383718 26.655849 
Q 60.550421 26.655849 60.644425 26.736818 
Q 60.743193 26.817788 60.848816 26.998779 
L 61.860766 28.827744 
Q 61.041743 29.465976 60.026631 29.794619 
Q 59.01152 30.123261 57.95415 30.123261 
z
M 63.700547 34.690909 
L 65.154914 15.120036 
L 67.479223 15.120036 
Q 67.836443 15.120036 68.066964 15.286738 
Q 68.302602 15.448678 68.353679 15.786846 
L 68.566996 17.082362 
Q 69.051167 16.591781 69.572542 16.177406 
Q 70.094271 15.758268 70.687767 15.462967 
Q 71.28638 15.162902 71.960462 15.000963 
Q 72.634897 14.83426 73.411254 14.83426 
Q 74.582935 14.83426 75.526226 15.343893 
Q 76.474633 15.848764 77.117576 16.810875 
Q 77.760872 17.768224 78.051072 19.182814 
Q 78.341273 20.597404 78.207481 22.397791 
Q 78.084662 24.050527 77.531824 25.465117 
Q 76.978987 26.879706 76.082957 27.913262 
Q 75.186927 28.946817 73.990409 29.53742 
Q 72.794244 30.123261 71.365366 30.123261 
Q 70.160345 30.123261 69.353732 29.761278 
Q 68.547474 29.394533 67.922622 28.765826 
L 67.482312 34.690909 
L 63.700547 34.690909 
z
M 71.893105 17.830142 
Q 70.835735 17.830142 70.075506 18.254043 
Q 69.315276 18.677943 68.612818 19.478115 
L 68.126141 26.027142 
Q 68.641961 26.713004 69.28348 26.989254 
Q 69.924998 27.265503 70.682303 27.265503 
Q 71.415794 27.265503 72.037514 26.974965 
Q 72.663997 26.684426 73.136904 26.08906 
Q 73.614574 25.493694 73.911152 24.579212 
Q 74.212493 23.66473 74.306643 22.397791 
Q 74.399731 21.14514 74.268869 20.278287 
Q 74.143124 19.406671 73.826255 18.863698 
Q 73.509385 18.320724 73.017803 18.077814 
Q 72.531338 17.830142 71.893105 17.830142 
z
M 85.814218 8.509091 
L 84.224643 29.899403 
L 80.44764 29.899403 
L 82.037215 8.509091 
L 85.814218 8.509091 
z
M 95.40411 14.881889 
Q 97.028268 14.881889 98.327363 15.410574 
Q 99.626458 15.939259 100.505423 16.929949 
Q 101.384741 17.915875 101.799132 19.325702 
Q 102.21864 20.730766 102.089096 22.473997 
Q 101.957781 24.241044 101.328737 25.655634 
Q 100.704456 27.070223 99.678249 28.060913 
Q 98.652042 29.051602 97.273664 29.589813 
Q 95.895639 30.123261 94.27148 30.123261 
Q 92.633033 30.123261 91.324766 29.589813 
Q 90.021616 29.051602 89.133125 28.060913 
Q 88.249398 27.070223 87.830598 25.655634 
Q 87.416561 24.241044 87.547875 22.473997 
Q 87.677419 20.730766 88.300993 19.325702 
Q 88.929683 17.915875 89.960299 16.929949 
Q 90.996031 15.939259 92.378465 15.410574 
Q 93.765662 14.881889 95.40411 14.881889 
z
M 94.485972 27.236926 
Q 96.195863 27.236926 97.104281 26.036668 
Q 98.0127 24.83641 98.186133 22.502575 
Q 98.359921 20.163977 97.629538 18.968482 
Q 96.899509 17.768224 95.189618 17.768224 
Q 93.446386 17.768224 92.533205 18.968482 
Q 91.620377 20.163977 91.44659 22.502575 
Q 91.273156 24.83641 92.007948 26.036668 
Q 92.74274 27.236926 94.485972 27.236926 
z
M 108.75376 30.123261 
Q 106.834299 30.123261 105.887976 29.013498 
Q 104.946416 27.903736 105.090119 25.969987 
L 105.689704 17.901586 
L 104.346559 17.901586 
Q 104.051257 17.901586 103.856554 17.701543 
Q 103.661851 17.5015 103.690521 17.115703 
L 103.802368 15.610617 
L 106.082679 15.177191 
L 107.162854 11.281115 
Q 107.341875 10.666698 108.042025 10.666698 
L 110.004352 10.666698 
L 109.665625 15.22482 
L 113.314028 15.22482 
L 113.11511 17.901586 
L 109.466707 17.901586 
L 108.88588 25.717552 
Q 108.83739 26.370073 109.091148 26.736818 
Q 109.350024 27.098801 109.873946 27.098801 
Q 110.154959 27.098801 110.345669 27.03212 
Q 110.536378 26.965439 110.676111 26.879706 
Q 110.816198 26.789211 110.930701 26.72253 
Q 111.049966 26.655849 111.183328 26.655849 
Q 111.350031 26.655849 111.444035 26.736818 
Q 111.542802 26.817788 111.648426 26.998779 
L 112.660376 28.827744 
Q 111.841353 29.465976 110.826241 29.794619 
Q 109.81113 30.123261 108.75376 30.123261 
z
M 120.256145 8.509091 
L 118.66657 29.899403 
L 114.889567 29.899403 
L 116.479142 8.509091 
L 120.256145 8.509091 
z
M 121.852374 29.899403 
L 121.852374 29.899403 
z
M 127.251595 15.120036 
L 126.153298 29.899403 
L 122.376296 29.899403 
L 123.474592 15.120036 
L 127.251595 15.120036 
z
M 128.028965 10.876266 
Q 127.992509 11.366848 127.765728 11.790749 
Q 127.543709 12.214649 127.191353 12.533766 
Q 126.843759 12.852882 126.381886 13.043399 
Q 125.920367 13.229153 125.429785 13.229153 
Q 124.953492 13.229153 124.543396 13.043399 
Q 124.133653 12.852882 123.833488 12.533766 
Q 123.538086 12.214649 123.383833 11.790749 
Q 123.22958 11.366848 123.266037 10.876266 
Q 123.302493 10.385685 123.520457 9.952258 
Q 123.73842 9.518832 124.081251 9.199716 
Q 124.428844 8.880599 124.866549 8.694845 
Q 125.304253 8.509091 125.780546 8.509091 
Q 126.271128 8.509091 126.705039 8.694845 
Q 127.138951 8.880599 127.439115 9.199716 
Q 127.744043 9.518832 127.902351 9.952258 
Q 128.065422 10.385685 128.028965 10.876266 
z
M 129.848735 29.899403 
L 131.43831 8.509091 
L 135.215312 8.509091 
L 134.594844 16.858505 
Q 135.527885 15.967837 136.620842 15.424863 
Q 137.718562 14.881889 139.042656 14.881889 
Q 140.309595 14.881889 141.281818 15.38676 
Q 142.258803 15.89163 142.902807 16.839453 
Q 143.547165 17.782513 143.833149 19.125659 
Q 144.12425 20.464042 144.000369 22.131067 
Q 143.866577 23.931454 143.309138 25.407961 
Q 142.752053 26.879706 141.854961 27.927551 
Q 140.957869 28.975395 139.776702 29.551709 
Q 138.595888 30.123261 137.195587 30.123261 
Q 136.514489 30.123261 135.981425 29.989899 
Q 135.448362 29.856537 135.004763 29.608864 
Q 134.561164 29.361192 134.205968 29.013498 
Q 133.850772 28.665804 133.525761 28.232378 
L 133.293032 29.184964 
Q 133.187094 29.58505 132.951556 29.742226 
Q 132.720781 29.899403 132.363562 29.899403 
L 129.848735 29.899403 
z
M 137.513758 17.830142 
Q 136.561172 17.830142 135.82952 18.254043 
Q 135.102631 18.677943 134.400173 19.478115 
L 133.91562 25.998565 
Q 134.430378 26.698715 135.061663 26.984491 
Q 135.698064 27.265503 136.441081 27.265503 
Q 137.188861 27.265503 137.819044 26.989254 
Q 138.449228 26.713004 138.917726 26.112875 
Q 139.386578 25.507983 139.68528 24.564923 
Q 139.989099 23.6171 140.088558 22.278717 
Q 140.177045 21.087985 140.044059 20.24971 
Q 139.916191 19.406671 139.589087 18.873223 
Q 139.262338 18.335012 138.738123 18.082577 
Q 138.213908 17.830142 137.513758 17.830142 
z
" clip-path="url(#pbc32fe0ae6)" style="fill: #11557c"/>
   </g>
  </g>
  <g id="axes_2">
   <g id="patch_3">
    <path d="M 107.002226 21.744 
C 107.002226 20.325757 106.722863 18.921305 106.180125 17.611019 
C 105.637387 16.300733 104.841829 15.110096 103.838979 14.107247 
C 102.83613 13.104398 101.645493 12.308839 100.335207 11.766101 
C 99.024922 11.223363 97.620469 10.944 96.202226 10.944 
C 94.783983 10.944 93.379531 11.223363 92.069245 11.766101 
C 90.758959 12.308839 89.568322 13.104398 88.565473 14.107247 
C 87.562624 15.110096 86.767065 16.300733 86.224327 17.611019 
C 85.681589 18.921305 85.402226 20.325757 85.402226 21.744 
C 85.402226 23.162243 85.681589 24.566695 86.224327 25.876981 
C 86.767065 27.187267 87.562624 28.377904 88.565473 29.380753 
C 89.568322 30.383602 90.758959 31.179161 92.069245 31.721899 
C 93.379531 32.264637 94.783983 32.544 96.202226 32.544 
C 97.620469 32.544 99.024922 32.264637 100.335207 31.721899 
C 101.645493 31.179161 102.83613 30.383602 103.838979 29.380753 
C 104.841829 28.377904 105.637387 27.187267 106.180125 25.876981 
C 106.722863 24.566695 107.002226 23.162243 107.002226 21.744 
M 96.202226 21.744 
C 96.202226 21.744 96.202226 21.744 96.202226 21.744 
C 96.202226 21.744 96.202226 21.744 96.202226 21.744 
C 96.202226 21.744 96.202226 21.744 96.202226 21.744 
C 96.202226 21.744 96.202226 21.744 96.202226 21.744 
C 96.202226 21.744 96.202226 21.744 96.202226 21.744 
C 96.202226 21.744 96.202226 21.744 96.202226 21.744 
C 96.202226 21.744 96.202226 21.744 96.202226 21.744 
C 96.202226 21.744 96.202226 21.744 96.202226 21.744 
C 96.202226 21.744 96.202226 21.744 96.202226 21.744 
C 96.202226 21.744 96.202226 21.744 96.202226 21.744 
C 96.202226 21.744 96.202226 21.744 96.202226 21.744 
C 96.202226 21.744 96.202226 21.744 96.202226 21.744 
C 96.202226 21.744 96.202226 21.744 96.202226 21.744 
C 96.202226 21.744 96.202226 21.744 96.202226 21.744 
C 96.202226 21.744 96.202226 21.744 96.202226 21.744 
C 96.202226 21.744 96.202226 21.744 96.202226 21.744 
M 107.002226 21.744 
z
" style="fill: #ffffff"/>
   </g>
   <g id="patch_4">
    <path d="M 96.202226 21.744 
C 96.202226 21.744 96.202226 21.744 96.202226 21.744 
C 96.202226 21.744 96.202226 21.744 96.202226 21.744 
C 96.202226 21.744 96.202226 21.744 96.202226 21.744 
C 96.202226 21.744 96.202226 21.744 96.202226 21.744 
C 96.202226 21.744 96.202226 21.744 96.202226 21.744 
C 96.202226 21.744 96.202226 21.744 96.202226 21.744 
C 96.202226 21.744 96.202226 21.744 96.202226 21.744 
C 96.202226 21.744 96.202226 21.744 96.202226 21.744 
C 96.202226 21.744 96.202226 21.744 96.202226 21.744 
C 96.202226 21.744 96.202226 21.744 96.202226 21.744 
C 96.202226 21.744 96.202226 21.744 96.202226 21.744 
C 96.202226 21.744 96.202226 21.744 96.202226 21.744 
C 96.202226 21.744 96.202226 21.744 96.202226 21.744 
C 96.202226 21.744 96.202226 21.744 96.202226 21.744 
C 96.202226 21.744 96.202226 21.744 96.202226 21.744 
C 96.202226 21.744 96.202226 21.744 96.202226 21.744 
L 107.698226 21.744 
C 107.698226 23.253641 107.40086 24.748602 106.823145 26.143329 
C 106.245431 27.538055 105.398603 28.805422 104.331126 29.8729 
C 103.263648 30.940377 101.996281 31.787205 100.601555 32.364919 
C 99.206829 32.942634 97.711867 33.24 96.202226 33.24 
C 94.692585 33.24 93.197624 32.942634 91.802898 32.364919 
C 90.408171 31.787205 89.140804 30.940377 88.073327 29.8729 
C 87.005849 28.805422 86.159022 27.538055 85.581307 26.143329 
C 85.003593 24.748602 84.706226 23.253641 84.706226 21.744 
C 84.706226 20.234359 85.003593 18.739398 85.581307 17.344671 
C 86.159022 15.949945 87.005849 14.682578 88.073327 13.6151 
C 89.140804 12.547623 90.408171 11.700795 91.802898 11.123081 
C 93.197624 10.545366 94.692585 10.248 96.202226 10.248 
C 97.711867 10.248 99.206829 10.545366 100.601555 11.123081 
C 101.996281 11.700795 103.263648 12.547623 104.331126 13.6151 
C 105.398603 14.682578 106.245431 15.949945 106.823145 17.344671 
C 107.40086 18.739398 107.698226 20.234359 107.698226 21.744 
z
" style="fill: #ffffff"/>
   </g>
   <g id="matplotlib.axis_1">
    <g id="xtick_1">
     <g id="line2d_1">
      <path d="M 96.202226 21.744 
L 107.002226 21.744 
" clip-path="url(#p37d6a72f87)" style="fill: none; stroke: #e6e6e6; stroke-width: 0.5; stroke-linecap: square"/>
     </g>
    </g>
    <g id="xtick_2">
     <g id="line2d_2">
      <path d="M 96.202226 21.744 
L 103.838979 14.107247 
" clip-path="url(#p37d6a72f87)" style="fill: none; stroke: #e6e6e6; stroke-width: 0.5; stroke-linecap: square"/>
     </g>
    </g>
    <g id="xtick_3">
     <g id="line2d_3">
      <path d="M 96.202226 21.744 
L 96.202226 10.944 
" clip-path="url(#p37d6a72f87)" style="fill: none; stroke: #e6e6e6; stroke-width: 0.5; stroke-linecap: square"/>
     </g>
    </g>
    <g id="xtick_4">
     <g id="line2d_4">
      <path d="M 96.202226 21.744 
L 88.565473 14.107247 
" clip-path="url(#p37d6a72f87)" style="fill: none; stroke: #e6e6e6; stroke-width: 0.5; stroke-linecap: square"/>
     </g>
    </g>
    <g id="xtick_5">
     <g id="line2d_5">
      <path d="M 96.202226 21.744 
L 85.402226 21.744 
" clip-path="url(#p37d6a72f87)" style="fill: none; stroke: #e6e6e6; stroke-width: 0.5; stroke-linecap: square"/>
     </g>
    </g>
    <g id="xtick_6">
     <g id="line2d_6">
      <path d="M 96.202226 21.744 
L 88.565473 29.380753 
" clip-path="url(#p37d6a72f87)" style="fill: none; stroke: #e6e6e6; stroke-width: 0.5; stroke-linecap: square"/>
     </g>
    </g>
    <g id="xtick_7">
     <g id="line2d_7">
      <path d="M 96.202226 21.744 
L 96.202226 32.544 
" clip-path="url(#p37d6a72f87)" style="fill: none; stroke: #e6e6e6; stroke-width: 0.5; stroke-linecap: square"/>
     </g>
    </g>
    <g id="xtick_8">
     <g id="line2d_8">
      <path d="M 96.202226 21.744 
L 103.838979 29.380753 
" clip-path="url(#p37d6a72f87)" style="fill: none; stroke: #e6e6e6; stroke-width: 0.5; stroke-linecap: square"/>
     </g>
    </g>
   </g>
   <g id="matplotlib.axis_2">
    <g id="ytick_1">
     <g id="line2d_9">
      <path d="M 97.402226 21.744 
C 97.402226 21.586417 97.371186 21.430367 97.310882 21.28478 
C 97.250577 21.139193 97.162182 21.0069 97.050754 20.895472 
C 96.939327 20.784044 96.807034 20.695649 96.661446 20.635345 
C 96.515859 20.57504 96.359809 20.544 96.202226 20.544 
C 96.044644 20.544 95.888593 20.57504 95.743006 20.635345 
C 95.597419 20.695649 95.465126 20.784044 95.353698 20.895472 
C 95.24227 21.0069 95.153875 21.139193 95.093571 21.28478 
C 95.033267 21.430367 95.002226 21.586417 95.002226 21.744 
C 95.002226 21.901583 95.033267 22.057633 95.093571 22.20322 
C 95.153875 22.348807 95.24227 22.4811 95.353698 22.592528 
C 95.465126 22.703956 95.597419 22.792351 95.743006 22.852655 
C 95.888593 22.91296 96.044644 22.944 96.202226 22.944 
C 96.359809 22.944 96.515859 22.91296 96.661446 22.852655 
C 96.807034 22.792351 96.939327 22.703956 97.050754 22.592528 
C 97.162182 22.4811 97.250577 22.348807 97.310882 22.20322 
C 97.371186 22.057633 97.402226 21.901583 97.402226 21.744 
" clip-path="url(#p37d6a72f87)" style="fill: none; stroke: #e6e6e6; stroke-width: 0.5; stroke-linecap: square"/>
     </g>
    </g>
    <g id="ytick_2">
     <g id="line2d_10">
      <path d="M 99.802226 21.744 
C 99.802226 21.271252 99.709105 20.803102 99.528193 20.36634 
C 99.34728 19.929578 99.082094 19.532699 98.747811 19.198416 
C 98.413528 18.864133 98.016649 18.598946 97.579887 18.418034 
C 97.143125 18.237121 96.674974 18.144 96.202226 18.144 
C 95.729479 18.144 95.261328 18.237121 94.824566 18.418034 
C 94.387804 18.598946 93.990925 18.864133 93.656642 19.198416 
C 93.322359 19.532699 93.057173 19.929578 92.87626 20.36634 
C 92.695347 20.803102 92.602226 21.271252 92.602226 21.744 
C 92.602226 22.216748 92.695347 22.684898 92.87626 23.12166 
C 93.057173 23.558422 93.322359 23.955301 93.656642 24.289584 
C 93.990925 24.623867 94.387804 24.889054 94.824566 25.069966 
C 95.261328 25.250879 95.729479 25.344 96.202226 25.344 
C 96.674974 25.344 97.143125 25.250879 97.579887 25.069966 
C 98.016649 24.889054 98.413528 24.623867 98.747811 24.289584 
C 99.082094 23.955301 99.34728 23.558422 99.528193 23.12166 
C 99.709105 22.684898 99.802226 22.216748 99.802226 21.744 
" clip-path="url(#p37d6a72f87)" style="fill: none; stroke: #e6e6e6; stroke-width: 0.5; stroke-linecap: square"/>
     </g>
    </g>
    <g id="ytick_3">
     <g id="line2d_11">
      <path d="M 102.202226 21.744 
C 102.202226 20.956087 102.047025 20.175836 101.745503 19.447899 
C 101.443982 18.719963 101.002005 18.058498 100.444867 17.501359 
C 99.887728 16.944221 99.226263 16.502244 98.498327 16.200723 
C 97.77039 15.899202 96.990139 15.744 96.202226 15.744 
C 95.414313 15.744 94.634062 15.899202 93.906126 16.200723 
C 93.178189 16.502244 92.516724 16.944221 91.959586 17.501359 
C 91.402447 18.058498 90.96047 18.719963 90.658949 19.447899 
C 90.357428 20.175836 90.202226 20.956087 90.202226 21.744 
C 90.202226 22.531913 90.357428 23.312164 90.658949 24.040101 
C 90.96047 24.768037 91.402447 25.429502 91.959586 25.986641 
C 92.516724 26.543779 93.178189 26.985756 93.906126 27.287277 
C 94.634062 27.588798 95.414313 27.744 96.202226 27.744 
C 96.990139 27.744 97.77039 27.588798 98.498327 27.287277 
C 99.226263 26.985756 99.887728 26.543779 100.444867 25.986641 
C 101.002005 25.429502 101.443982 24.768037 101.745503 24.040101 
C 102.047025 23.312164 102.202226 22.531913 102.202226 21.744 
" clip-path="url(#p37d6a72f87)" style="fill: none; stroke: #e6e6e6; stroke-width: 0.5; stroke-linecap: square"/>
     </g>
    </g>
    <g id="ytick_4">
     <g id="line2d_12">
      <path d="M 104.602226 21.744 
C 104.602226 20.640922 104.384944 19.54857 103.962814 18.529459 
C 103.540685 17.510348 102.921917 16.584297 102.141923 15.804303 
C 101.361929 15.024309 100.435878 14.405542 99.416767 13.983412 
C 98.397656 13.561282 97.305304 13.344 96.202226 13.344 
C 95.099148 13.344 94.006797 13.561282 92.987685 13.983412 
C 91.968574 14.405542 91.042523 15.024309 90.262529 15.804303 
C 89.482535 16.584297 88.863768 17.510348 88.441638 18.529459 
C 88.019509 19.54857 87.802226 20.640922 87.802226 21.744 
C 87.802226 22.847078 88.019509 23.93943 88.441638 24.958541 
C 88.863768 25.977652 89.482535 26.903703 90.262529 27.683697 
C 91.042523 28.463691 91.968574 29.082458 92.987685 29.504588 
C 94.006797 29.926718 95.099148 30.144 96.202226 30.144 
C 97.305304 30.144 98.397656 29.926718 99.416767 29.504588 
C 100.435878 29.082458 101.361929 28.463691 102.141923 27.683697 
C 102.921917 26.903703 103.540685 25.977652 103.962814 24.958541 
C 104.384944 23.93943 104.602226 22.847078 104.602226 21.744 
" clip-path="url(#p37d6a72f87)" style="fill: none; stroke: #e6e6e6; stroke-width: 0.5; stroke-linecap: square"/>
     </g>
    </g>
   </g>
   <g id="patch_5">
    <path d="M 96.202226 21.744 
C 96.202226 21.744 96.202226 21.744 96.202226 21.744 
C 96.202226 21.744 96.202226 21.744 96.202226 21.744 
L 98.484762 21.002359 
C 98.523614 21.121934 98.55301 21.244377 98.572678 21.368557 
C 98.592347 21.492738 98.602226 21.618272 98.602226 21.744 
z
" clip-path="url(#p37d6a72f87)" style="fill: #004cff; fill-opacity: 0.6; stroke: #4c4c4c; stroke-width: 0.7; stroke-linejoin: miter"/>
   </g>
   <g id="patch_6">
    <path d="M 96.202226 21.744 
C 96.202226 21.744 96.202226 21.744 96.202226 21.744 
C 96.202226 21.744 96.202226 21.744 96.202226 21.744 
L 98.732125 15.003109 
C 99.085259 15.135642 99.427432 15.29572 99.755485 15.481864 
C 100.083539 15.668008 100.396458 15.879642 100.691353 16.114813 
z
" clip-path="url(#p37d6a72f87)" style="fill: #ceff29; fill-opacity: 0.6; stroke: #4c4c4c; stroke-width: 0.7; stroke-linejoin: miter"/>
   </g>
   <g id="patch_7">
    <path d="M 96.202226 21.744 
C 96.202226 21.744 96.202226 21.744 96.202226 21.744 
C 96.202226 21.744 96.202226 21.744 96.202226 21.744 
L 90.04982 14.37461 
C 90.629279 13.890843 91.26378 13.477105 91.940162 13.141977 
C 92.616543 12.806848 93.330098 12.552663 94.066025 12.384692 
z
" clip-path="url(#p37d6a72f87)" style="fill: #ff6800; fill-opacity: 0.6; stroke: #4c4c4c; stroke-width: 0.7; stroke-linejoin: miter"/>
   </g>
   <g id="patch_8">
    <path d="M 96.202226 21.744 
C 96.202226 21.744 96.202226 21.744 96.202226 21.744 
C 96.202226 21.744 96.202226 21.744 96.202226 21.744 
L 87.937218 23.243878 
C 87.779829 22.376593 87.759928 21.489914 87.878248 20.616441 
C 87.996568 19.742967 88.251641 18.893536 88.634088 18.099377 
z
" clip-path="url(#p37d6a72f87)" style="fill: #ffc400; fill-opacity: 0.6; stroke: #4c4c4c; stroke-width: 0.7; stroke-linejoin: miter"/>
   </g>
   <g id="patch_9">
    <path d="M 96.202226 21.744 
C 96.202226 21.744 96.202226 21.744 96.202226 21.744 
C 96.202226 21.744 96.202226 21.744 96.202226 21.744 
L 92.256616 24.477526 
C 92.185044 24.374216 92.117556 24.268136 92.054309 24.15953 
C 91.991063 24.050924 91.932106 23.939876 91.877576 23.826642 
z
" clip-path="url(#p37d6a72f87)" style="fill: #29ffce; fill-opacity: 0.6; stroke: #4c4c4c; stroke-width: 0.7; stroke-linejoin: miter"/>
   </g>
   <g id="patch_10">
    <path d="M 96.202226 21.744 
C 96.202226 21.744 96.202226 21.744 96.202226 21.744 
C 96.202226 21.744 96.202226 21.744 96.202226 21.744 
L 97.207264 27.659226 
C 96.819802 27.725058 96.426808 27.752662 96.033949 27.74164 
C 95.641089 27.730617 95.250261 27.681021 94.867101 27.593567 
z
" clip-path="url(#p37d6a72f87)" style="fill: #7dff7a; fill-opacity: 0.6; stroke: #4c4c4c; stroke-width: 0.7; stroke-linejoin: miter"/>
   </g>
   <g id="patch_11">
    <path d="M 96.202226 21.744 
C 96.202226 21.744 96.202226 21.744 96.202226 21.744 
C 96.202226 21.744 96.202226 21.744 96.202226 21.744 
L 103.774492 27.644915 
C 103.542696 27.942363 103.293576 28.225895 103.028426 28.494037 
C 102.763276 28.762178 102.482557 29.014464 102.187728 29.249582 
z
" clip-path="url(#p37d6a72f87)" style="fill: #ff6800; fill-opacity: 0.6; stroke: #4c4c4c; stroke-width: 0.7; stroke-linejoin: miter"/>
   </g>
   <g id="patch_12">
    <path d="M 107.002226 21.744 
C 107.002226 20.325757 106.722863 18.921305 106.180125 17.611019 
C 105.637387 16.300733 104.841829 15.110096 103.838979 14.107247 
C 102.83613 13.104398 101.645493 12.308839 100.335207 11.766101 
C 99.024922 11.223363 97.620469 10.944 96.202226 10.944 
C 94.783983 10.944 93.379531 11.223363 92.069245 11.766101 
C 90.758959 12.308839 89.568322 13.104398 88.565473 14.107247 
C 87.562624 15.110096 86.767065 16.300733 86.224327 17.611019 
C 85.681589 18.921305 85.402226 20.325757 85.402226 21.744 
C 85.402226 23.162243 85.681589 24.566695 86.224327 25.876981 
C 86.767065 27.187267 87.562624 28.377904 88.565473 29.380753 
C 89.568322 30.383602 90.758959 31.179161 92.069245 31.721899 
C 93.379531 32.264637 94.783983 32.544 96.202226 32.544 
C 97.620469 32.544 99.024922 32.264637 100.335207 31.721899 
C 101.645493 31.179161 102.83613 30.383602 103.838979 29.380753 
C 104.841829 28.377904 105.637387 27.187267 106.180125 25.876981 
C 106.722863 24.566695 107.002226 23.162243 107.002226 21.744 
" style="fill: none; stroke: #11557c; stroke-linejoin: miter; stroke-linecap: square"/>
   </g>
  </g>
 </g>
 <defs>
  <clipPath id="pbc32fe0ae6">
   <rect x="7.2" y="7.2" width="143.444453" height="28.8"/>
  </clipPath>
  <clipPath id="p37d6a72f87">
   <path d="M 107.002226 21.744 
C 107.002226 20.325757 106.722863 18.921305 106.180125 17.611019 
C 105.637387 16.300733 104.841829 15.110096 103.838979 14.107247 
C 102.83613 13.104398 101.645493 12.308839 100.335207 11.766101 
C 99.024922 11.223363 97.620469 10.944 96.202226 10.944 
C 94.783983 10.944 93.379531 11.223363 92.069245 11.766101 
C 90.758959 12.308839 89.568322 13.104398 88.565473 14.107247 
C 87.562624 15.110096 86.767065 16.300733 86.224327 17.611019 
C 85.681589 18.921305 85.402226 20.325757 85.402226 21.744 
C 85.402226 23.162243 85.681589 24.566695 86.224327 25.876981 
C 86.767065 27.187267 87.562624 28.377904 88.565473 29.380753 
C 89.568322 30.383602 90.758959 31.179161 92.069245 31.721899 
C 93.379531 32.264637 94.783983 32.544 96.202226 32.544 
C 97.620469 32.544 99.024922 32.264637 100.335207 31.721899 
C 101.645493 31.179161 102.83613 30.383602 103.838979 29.380753 
C 104.841829 28.377904 105.637387 27.187267 106.180125 25.876981 
C 106.722863 24.566695 107.002226 23.162243 107.002226 21.744 
M 96.202226 21.744 
C 96.202226 21.744 96.202226 21.744 96.202226 21.744 
C 96.202226 21.744 96.202226 21.744 96.202226 21.744 
C 96.202226 21.744 96.202226 21.744 96.202226 21.744 
C 96.202226 21.744 96.202226 21.744 96.202226 21.744 
C 96.202226 21.744 96.202226 21.744 96.202226 21.744 
C 96.202226 21.744 96.202226 21.744 96.202226 21.744 
C 96.202226 21.744 96.202226 21.744 96.202226 21.744 
C 96.202226 21.744 96.202226 21.744 96.202226 21.744 
C 96.202226 21.744 96.202226 21.744 96.202226 21.744 
C 96.202226 21.744 96.202226 21.744 96.202226 21.744 
C 96.202226 21.744 96.202226 21.744 96.202226 21.744 
C 96.202226 21.744 96.202226 21.744 96.202226 21.744 
C 96.202226 21.744 96.202226 21.744 96.202226 21.744 
C 96.202226 21.744 96.202226 21.744 96.202226 21.744 
C 96.202226 21.744 96.202226 21.744 96.202226 21.744 
C 96.202226 21.744 96.202226 21.744 96.202226 21.744 
M 107.002226 21.744 
z
"/>
  </clipPath>
 </defs>
</svg>
